<svg xmlns="http://www.w3.org/2000/svg">

    <symbol id="icon-dice-1" viewBox="0 0 140 140" xmlns="http://www.w3.org/2000/svg">
        <ellipse ry="15" rx="15" cy="70" cx="70" fill="#000" />
    </symbol>

    <symbol id="icon-dice-2" viewBox="0 0 140 140" xmlns="http://www.w3.org/2000/svg">
        <ellipse ry="15" rx="15" cy="30" cx="30" fill="#000" />
        <ellipse ry="15" rx="15" cy="110" cx="110" fill="#000" />
    </symbol>

    <symbol id="icon-dice-3" viewBox="0 0 140 140" xmlns="http://www.w3.org/2000/svg">
        <ellipse ry="15" rx="15" cy="110" cx="30" fill="#000" />
        <ellipse ry="15" rx="15" cy="70" cx="70" fill="#000" />
        <ellipse ry="15" rx="15" cy="30" cx="110" fill="#000" />
    </symbol>

    <symbol id="icon-dice-4" viewBox="0 0 140 140" xmlns="http://www.w3.org/2000/svg">
        <ellipse ry="15" rx="15" cy="30" cx="30" fill="#000" />
        <ellipse ry="15" rx="15" cy="110" cx="30" fill="#000" />
        <ellipse ry="15" rx="15" cy="30" cx="110" fill="#000" />
        <ellipse ry="15" rx="15" cy="110" cx="110" fill="#000" />
    </symbol>

    <symbol id="icon-dice-5" viewBox="0 0 140 140" xmlns="http://www.w3.org/2000/svg">
        <ellipse ry="15" rx="15" cy="30" cx="30" fill="#000" />
        <ellipse ry="15" rx="15" cy="110" cx="30" fill="#000" />
        <ellipse ry="15" rx="15" cy="70" cx="70" fill="#000" />
        <ellipse ry="15" rx="15" cy="30" cx="110" fill="#000" />
        <ellipse ry="15" rx="15" cy="110" cx="110" fill="#000" />
    </symbol>

    <symbol id="icon-dice-6" viewBox="0 0 140 140" xmlns="http://www.w3.org/2000/svg">
        <ellipse ry="15" rx="15" cy="30" cx="30" fill="#000" />
        <ellipse ry="15" rx="15" cy="110" cx="30" fill="#000" />
        <ellipse ry="15" rx="15" cy="70" cx="30" fill="#000" />
        <ellipse ry="15" rx="15" cy="30" cx="110" fill="#000" />
        <ellipse ry="15" rx="15" cy="110" cx="110" fill="#000" />
        <ellipse ry="15" rx="15" cy="70" cx="110" fill="#000" />
    </symbol>

</svg>